# xmcd
#
# Track frame offsets: 
#        150
#        18242
#        39845
#        56812
#        76050
#        94690
#        110342
#        127652
#        144132
#        160917
#        181467
#        197359
#
# Disc length: 2868 seconds
#
# Revision: 0
# Processed by: cddbd v1.5.2PL0 Copyright (c) Steve Scherf et al.
# Submitted via: ExactAudioCopy v1.0b4
#
DISCID=840b320c
DTITLE=Chris James and Patrick Rynn - Gonna Boogie Anyway
DYEAR=2010
DGENRE=Blues, Chicago Blues
TTITLE0=Money Don't Like Me
TTITLE1=Dearest Darling
TTITLE2=You Can't Trust Nobody
TTITLE3=Life Couldn't Be Sweeter
TTITLE4=H. M. Stomp
TTITLE5=Headed Out West
TTITLE6=Can't Stand To See You Go
TTITLE7=Gonna Boogie Anyway
TTITLE8=The Tables Have Turned
TTITLE9=Money Don't Like Me (part 2)
TTITLE10=Black Spider Blues
TTITLE11=Little Girl
EXTD=
EXTT0=
EXTT1=
EXTT2=
EXTT3=
EXTT4=
EXTT5=
EXTT6=
EXTT7=
EXTT8=
EXTT9=
EXTT10=
EXTT11=
PLAYORDER=
